<svg width="186" height="141" viewBox="0 0 186 141" fill="none" xmlns="http://www.w3.org/2000/svg">
<path fill-rule="evenodd" clip-rule="evenodd" d="M180.422 86.3409C174.652 103.329 159.36 114.927 143.945 124.106C131.727 131.381 117.127 129.705 103.155 132.35C89.4767 134.939 76.6801 142.164 63.0312 139.423C47.1389 136.23 32.1354 128.471 21.7758 116.003C10.1033 101.956 -4.50107 83.2307 2.23171 66.2529C9.31158 48.3998 37.3281 52.4686 51.9222 39.9839C63.5469 30.0395 62.6606 8.92584 76.6033 2.63096C91.0654 -3.89843 107.356 4.08047 122.728 8.0162C141.747 12.8856 164.874 12.4054 176.517 28.2122C188.323 44.2403 186.825 67.4915 180.422 86.3409Z" fill="#2B3B30"/>
</svg>
