<svg width="13" height="17" viewBox="0 0 13 17" fill="none" xmlns="http://www.w3.org/2000/svg">
<path d="M3.51851 14.3055V15.8495C3.51851 16.0199 3.65685 16.1583 3.82731 16.1583H5.06251C5.14441 16.1583 5.22296 16.1257 5.28087 16.0678C5.33878 16.0099 5.37132 15.9314 5.37132 15.8495V14.3055H5.98892V15.8495C5.98892 16.0199 6.12726 16.1583 6.29772 16.1583H7.53293C7.61483 16.1583 7.69337 16.1257 7.75128 16.0678C7.8092 16.0099 7.84173 15.9314 7.84173 15.8495V14.3055H7.94549C10.406 14.3055 12.165 13.0295 12.165 10.8222C12.165 8.9669 10.9211 7.9528 9.46479 7.80828V7.69958C10.6629 7.40066 11.5436 6.49649 11.5436 4.99448C11.5436 3.10214 10.1232 1.9534 7.95537 1.9534H7.84173V0.409388C7.84173 0.327488 7.8092 0.248944 7.75128 0.191032C7.69337 0.13312 7.61483 0.100586 7.53293 0.100586H6.29772C6.21582 0.100586 6.13728 0.13312 6.07937 0.191032C6.02145 0.248944 5.98892 0.327488 5.98892 0.409388V1.9534H5.28115V0.409388C5.28115 0.327488 5.24861 0.248944 5.1907 0.191032C5.13279 0.13312 5.05424 0.100586 4.97234 0.100586H3.82731C3.74541 0.100586 3.66686 0.13312 3.60895 0.191032C3.55104 0.248944 3.51851 0.327488 3.51851 0.409388V1.9534L1.05056 1.96698C0.968663 1.96698 0.890117 1.99952 0.832206 2.05743C0.774294 2.11534 0.74176 2.19389 0.74176 2.27579V3.49741C0.74176 3.66663 0.877633 3.80621 1.04809 3.80621L1.98067 3.80003C2.2253 3.80166 2.45935 3.89998 2.63175 4.07354C2.80415 4.2471 2.90091 4.4818 2.9009 4.72644V11.5263C2.9009 11.7719 2.8033 12.0076 2.62956 12.1813C2.45583 12.3551 2.22019 12.4527 1.9745 12.4527L1.05056 12.4662C0.968663 12.4662 0.890117 12.4988 0.832206 12.5567C0.774294 12.6146 0.74176 12.6931 0.74176 12.775V14.0103C0.74176 14.1807 0.880103 14.3191 1.05056 14.3191L3.51851 14.3055ZM5.28115 3.79015H7.40447C8.52356 3.79015 9.18069 4.40528 9.18069 5.41074C9.18069 6.48661 8.47045 7.09309 6.86221 7.09309H5.28115V3.79015ZM5.28115 8.79397H7.55393C8.95836 8.79397 9.72295 9.51039 9.72295 10.6764C9.72295 11.8536 8.94971 12.4675 7.05737 12.4675H5.28115V8.79521V8.79397Z" fill="#F7B502"/>
</svg>
