<svg width="361" height="250" viewBox="0 0 361 250" fill="none" xmlns="http://www.w3.org/2000/svg">
<g clip-path="url(#clip0_35_694)">
<path d="M158.018 226.161C158.246 206.876 166.068 188.458 179.786 174.901C193.505 161.344 212.015 153.741 231.302 153.741C250.589 153.741 269.098 161.344 282.817 174.901C296.535 188.458 304.357 206.876 304.586 226.161H158.018Z" fill="#5C6A69"/>
<path d="M98.3567 163.774C87.7097 166.166 78.302 167.361 70.1334 167.361C56.7424 167.361 46.5702 164.164 39.3409 157.758C21.544 141.988 24.7522 110.069 28.1446 76.2688L28.4537 73.0986C28.573 72.2697 29.0075 71.5187 29.6667 71.0022C30.3258 70.4857 31.1587 70.2434 31.9921 70.3259C32.8255 70.4083 33.595 70.8091 34.1402 71.4448C34.6854 72.0804 34.9641 72.9018 34.9187 73.738L34.5882 76.9516C31.3637 109.017 28.3289 139.398 43.6329 152.946C47.7299 156.577 53.0679 158.967 59.7336 160.127C72.9891 164.131 89.4694 160.864 100.888 157.91C101.072 158.745 100.828 161.622 100.373 162.343C99.9154 163.067 99.1909 163.581 98.3567 163.774V163.774Z" stroke="black" stroke-width="0.887365" stroke-miterlimit="10"/>
<path d="M73.5908 221.554C85.9793 221.711 96.6389 223.993 101.099 227.098L45.9579 226.388C50.4938 223.402 61.2024 221.397 73.5908 221.554Z" stroke="black" stroke-width="0.887365" stroke-miterlimit="10"/>
<path d="M73.5908 221.554L71.3094 167.725" stroke="black" stroke-width="0.887365" stroke-miterlimit="10"/>
<path d="M13.7024 227.043H388.711" stroke="black" stroke-width="0.887365" stroke-miterlimit="10"/>
<path d="M142.556 112.676L141.375 227.114" stroke="black" stroke-width="0.659835" stroke-miterlimit="10"/>
<path d="M141.874 95.4858C141.874 95.4858 154.148 101.496 153.335 101.74C152.186 102.157 148.008 100.412 148.008 100.412C148.008 100.412 146.171 102.173 145.223 101.946C144.032 101.669 142.88 101.247 141.792 100.688" stroke="black" stroke-width="0.887365" stroke-miterlimit="10"/>
<path d="M138.058 99.3057C138.058 99.3057 149.135 104.319 148.323 104.562C147.174 104.98 142.995 103.24 142.995 103.24C142.995 103.24 141.158 104.996 140.21 104.768C139.019 104.492 137.867 104.07 136.78 103.511" stroke="black" stroke-width="0.887365" stroke-miterlimit="10"/>
<path d="M171.848 104.438H138.633V106.34H171.848V104.438Z" fill="black"/>
<path d="M169.75 104.492L180.941 79.2109L182.247 79.6445L171.598 104.438L169.75 104.492Z" stroke="black" stroke-width="0.568824" stroke-miterlimit="10"/>
<path d="M42.6412 139.663L36.0785 86.0122C35.9564 84.572 36.2102 83.1248 36.8155 81.8123C36.9889 81.4332 37.2134 81.0795 37.4823 80.761C38.2544 79.8907 39.2067 79.1991 40.2732 78.7342L55.3712 69.3047" stroke="black" stroke-width="0.659835" stroke-miterlimit="10"/>
<path d="M54.0543 46.8911C51.7403 53.7248 56.6449 55.329 56.6449 55.329L56.9103 66.3355C56.9255 67.0084 56.7365 67.67 56.3679 68.2331C55.9992 68.7962 55.4683 69.2342 54.8455 69.4894" stroke="black" stroke-width="0.659835" stroke-miterlimit="10"/>
<path d="M60.2107 61.6966L67.5698 64.726C68.1421 64.9619 68.7773 64.9975 69.3724 64.8274C69.9675 64.6572 70.4876 64.2912 70.8487 63.7885L73.4173 60.2117C74.537 58.6573 75.2184 56.8305 75.3899 54.9225C75.3899 54.9225 76.2949 48.7446 76.6688 44.084" stroke="black" stroke-width="0.659835" stroke-miterlimit="10"/>
<path d="M71.5804 63.1543C71.5479 64.7205 71.9922 65.4467 73.0273 66.6227C74.0624 67.7987 75.5418 68.8988 77.1026 69.0505" stroke="black" stroke-width="0.659835" stroke-miterlimit="10"/>
<path d="M55.3712 69.3106C66.6921 79.9107 76.0132 70.3619 77.2867 68.9204" stroke="black" stroke-width="0.659835" stroke-miterlimit="10"/>
<path d="M70.258 47.5249C73.1682 47.0697 74.1055 47.9801 74.1055 47.9801" stroke="black" stroke-width="0.329918" stroke-miterlimit="10"/>
<path d="M76.9181 69.0452C65.7273 79.7158 56.3249 69.7389 56.3249 69.7389C64.3779 74.7192 72.7019 69.7389 73.5744 67.3057L76.9181 69.0452Z" fill="black"/>
<path d="M78.4626 72.8113C76.8973 74.3294 75.0707 75.5521 73.0706 76.4205C71.05 77.2522 68.8549 77.5705 66.6813 77.3472C64.5336 77.0842 62.4532 76.4246 60.5465 75.4018L59.1377 74.6214L57.7937 73.7272C57.3432 73.4331 56.9088 73.1147 56.4929 72.7734L55.2249 71.7817L56.5146 72.7463C56.9351 73.0789 57.3749 73.3866 57.8316 73.6676L59.1864 74.5346L60.6116 75.2771C62.5141 76.251 64.5818 76.8611 66.7083 77.0762C68.8299 77.251 70.9619 76.8973 72.9134 76.0466C74.841 75.1594 76.5925 73.9312 78.0834 72.4212L78.4626 72.8113Z" fill="#231F20"/>
<path d="M229.872 107.56L128.591 106.265L128.51 112.54L229.774 113.835" stroke="black" stroke-width="0.659835" stroke-miterlimit="10"/>
<path d="M42.2837 139.625C51.025 137.485 125.507 120.658 125.507 120.658C128.455 120.084 194.408 196.528 194.408 196.528L187.905 196.923L118.099 147.326C91.1384 166.418 51.1984 172.602 42.2837 139.625Z" fill="#2A2D2A"/>
<path d="M134.601 248.992L133.463 244.586L142.546 244.705C145.83 244.743 149.049 245.789 152.078 247.274C152.239 247.353 152.368 247.483 152.446 247.644C152.523 247.805 152.544 247.988 152.506 248.162C152.467 248.337 152.37 248.493 152.232 248.606C152.093 248.719 151.921 248.783 151.742 248.786L134.601 248.992Z" stroke="black" stroke-width="0.568824" stroke-miterlimit="10"/>
<path d="M188.685 200.95L187.547 196.544L196.624 196.658C199.914 196.701 203.128 197.742 206.162 199.226C206.326 199.303 206.458 199.434 206.538 199.596C206.618 199.758 206.64 199.943 206.601 200.119C206.562 200.296 206.464 200.454 206.323 200.567C206.182 200.681 206.007 200.743 205.826 200.744L188.685 200.95Z" stroke="black" stroke-width="0.568824" stroke-miterlimit="10"/>
<path d="M104.99 147.765L133.436 244.515L141.402 245.057L125.621 120.761L42.2837 139.625L104.99 147.765Z" fill="#2A2D2A"/>
<path d="M76.9181 69.0444L84.8954 70.6702C86.5093 71.0062 87.9799 71.8327 89.1061 73.0365C90.2324 74.2404 90.9592 75.7628 91.1871 77.3955L94.585 103.045" stroke="black" stroke-width="0.659835" stroke-miterlimit="10"/>
<path d="M52.9 86.2134L63.9065 107.446L131.349 98.1846L132.227 104.872L57.1055 122.327C55.6253 122.674 54.071 122.508 52.6975 121.857C51.324 121.205 50.2127 120.106 49.5455 118.74L36.9944 93.4697" stroke="black" stroke-width="0.659835" stroke-miterlimit="10"/>
<path d="M93.344 95.063L141.716 95.3827L142.096 101.095" stroke="black" stroke-width="0.659835" stroke-miterlimit="10"/>
<path d="M131.431 98.3148C131.62 98.2769 138.037 99.0734 138.037 99.0734L136.953 103.783L132.119 104.552" stroke="black" stroke-width="0.659835" stroke-miterlimit="10"/>
<path d="M95.295 113.196L96.7148 127.584" stroke="black" stroke-width="0.659835" stroke-miterlimit="10"/>
<path d="M37.9266 95.8975L48.7326 123.92C49.315 125.436 50.4578 126.67 51.9243 127.367C53.3909 128.064 55.0692 128.171 56.6122 127.665L95.4087 113.813L94.9697 113.532L56.5744 122.555C55.298 122.854 53.9578 122.714 52.7708 122.158C51.5839 121.601 50.6193 120.66 50.0332 119.487L37.9266 95.8975Z" fill="black"/>
<path d="M97.6523 102.845L94.8506 95.3174L93.5283 95.3499L94.4875 103.387L97.6523 102.845Z" fill="black"/>
<path d="M75.921 42.5877C76.4629 43.6716 76.5062 45.926 76.2732 48.3105C76.0401 50.695 75.0321 56.8512 74.3439 58.6666C73.6556 60.4821 70.8486 63.788 70.8486 63.788C70.1983 71.5429 72.1818 103.072 88.5046 98.081C99.121 94.8294 85.5674 76.0354 79.6875 64.9368C73.8075 53.8381 86.0333 46.6522 76.6688 35.1688C75.3248 33.543 68.193 29.2618 60.5681 32.4591C47.9466 37.7158 50.6454 61.6094 56.3682 68.2589C56.3682 68.2589 56.8342 67.1425 56.7746 60.6719C56.715 54.2013 55.9346 55.4639 54.065 53.0469C52.1953 50.6299 53.5827 47.4596 55.1488 46.4679C56.715 45.4761 61.083 42.8153 61.2077 39.6775C61.2077 39.6775 66.5781 43.2705 70.7618 43.6336C74.9455 43.9967 75.921 42.5877 75.921 42.5877Z" fill="#D0D1D0"/>
<path d="M54.9865 46.0783C55.3008 47.0971 55.8916 49.487 56.1788 50.6792C56.1788 50.6965 56.1857 50.7131 56.1978 50.7253C56.21 50.7375 56.2264 50.7443 56.2436 50.7443C56.2609 50.7443 56.2775 50.7375 56.2897 50.7253C56.3019 50.7131 56.3087 50.6965 56.3087 50.6792C56.2654 49.1944 56.3628 45.802 58.097 44.122C60.346 41.9543 55.2249 43.3741 55.2249 43.3741L54.9865 46.0783Z" fill="black"/>
<path d="M76.7232 47.5686C78.5061 47.7799 79.8773 48.5495 79.666 50.3379C79.5386 51.1716 79.0923 51.9231 78.4212 52.434C77.7502 52.9449 76.9069 53.1751 76.0693 53.076C75.2318 52.9768 74.4655 52.5561 73.9323 51.9027C73.3991 51.2492 73.1407 50.4141 73.2115 49.5737C73.4229 47.7853 74.9403 47.3572 76.7232 47.5686Z" fill="white" stroke="black" stroke-width="0.494877" stroke-miterlimit="10"/>
<path d="M64.2968 48.5169L54.8727 47.7528L54.6125 46.9399L64.7411 47.2272" fill="white"/>
<path d="M64.2968 48.5169L54.8727 47.7528L54.6125 46.9399L64.7411 47.2272" stroke="black" stroke-width="0.329918" stroke-miterlimit="10"/>
<path d="M67.8355 46.5171C69.6239 46.7285 70.9949 47.4927 70.7836 49.281C70.6803 49.8955 70.4026 50.4673 69.9836 50.9285C69.5646 51.3897 69.0221 51.7207 68.4203 51.8823C67.8185 52.0439 67.1828 52.0291 66.5892 51.8398C65.9955 51.6506 65.4688 51.2947 65.0716 50.8146C64.5428 50.17 64.2775 49.349 64.3291 48.5168C64.5242 46.7285 66.0309 46.3058 67.8355 46.5171Z" stroke="black" stroke-width="0.494877" stroke-miterlimit="10"/>
<path d="M398.194 29.1642C298.041 122.95 51.621 -100.449 0.674393 61.799" stroke="#383538" stroke-width="0.568824" stroke-miterlimit="10"/>
</g>
<defs>
<clipPath id="clip0_35_694">
<rect width="397.964" height="248.761" fill="white" transform="translate(0.414352 0.507324)"/>
</clipPath>
</defs>
</svg>
