<svg width="404" height="260" viewBox="0 0 404 260" fill="none" xmlns="http://www.w3.org/2000/svg">
<g clip-path="url(#clip0_35_577)">
<path d="M166.265 258.017C166.446 236.906 175.125 216.72 190.413 201.855C205.701 186.989 226.359 178.648 247.889 178.648C269.419 178.648 290.077 186.989 305.364 201.855C320.652 216.72 329.332 236.906 329.513 258.017H166.265Z" fill="#253937" fill-opacity="0.72"/>
<path d="M185.718 104.32L237.963 252.798H228.323L149.077 110.741L185.718 104.32Z" fill="#2A2D2A"/>
<path d="M417.006 257.728H13.6103" stroke="black" stroke-width="0.681958" stroke-miterlimit="10"/>
<path d="M230.542 257.586L228.629 252.809H238.31C242.182 252.809 244.332 254.327 247.308 256.135C247.427 256.194 247.522 256.292 247.576 256.411C247.63 256.531 247.64 256.665 247.604 256.791C247.569 256.917 247.49 257.028 247.381 257.103C247.273 257.179 247.14 257.215 247.007 257.206L230.542 257.586Z" stroke="black" stroke-width="0.57793" stroke-miterlimit="10"/>
<path d="M180.216 218.098L182.054 213.457L189.047 213.547C192.919 213.547 195.069 215.066 198.045 216.868C198.165 216.927 198.26 217.025 198.314 217.146C198.368 217.266 198.378 217.401 198.342 217.527C198.306 217.654 198.226 217.764 198.116 217.839C198.006 217.914 197.872 217.95 197.739 217.939L180.216 218.098Z" stroke="black" stroke-width="0.57793" stroke-miterlimit="10"/>
<path d="M175.2 55.481C175.887 60.2413 181.73 82.4563 181.73 82.4563L233.345 60.9214L238.888 67.7219C238.888 67.7219 204.963 86.0493 184.198 95.553C163.433 105.057 159.96 80.6202 155.816 53.4805" stroke="black" stroke-width="0.901572" stroke-miterlimit="10"/>
<path d="M184.886 44.6451L184.308 49.6095C184.292 49.7246 184.246 49.8338 184.175 49.9268C184.105 50.0192 184.011 50.0916 183.903 50.1365C183.794 50.1819 183.675 50.1995 183.557 50.1876C183.44 50.1741 183.328 50.1312 183.233 50.0629L182.932 49.8305L183.071 47.9377C183.196 46.3291 182.872 44.7175 182.135 43.2751C181.398 41.8328 180.275 40.6139 178.887 39.7487L167.559 32.6876C167.147 32.4392 166.702 32.2485 166.236 32.1209L168.802 29.3383C168.994 29.1384 169.226 28.9802 169.483 28.8738C169.741 28.7674 170.019 28.7152 170.299 28.7206C170.578 28.732 170.851 28.7995 171.102 28.9189C171.354 29.0413 171.577 29.2152 171.755 29.429L184.886 44.6451Z" stroke="black" stroke-width="0.901572" stroke-miterlimit="10"/>
<path d="M166.259 32.0757C166.725 32.2033 167.17 32.3941 167.582 32.6424L178.91 39.7036C180.299 40.5688 181.421 41.7877 182.158 43.23C182.895 44.6724 183.219 46.2839 183.094 47.8926L182.955 49.7854" stroke="black" stroke-width="0.901572" stroke-miterlimit="10"/>
<path d="M176.714 97.3491L175.841 104.274" stroke="black" stroke-width="0.901572" stroke-miterlimit="10"/>
<path d="M182.944 49.8193L179.731 74.3295" stroke="black" stroke-width="0.901572" stroke-miterlimit="10"/>
<path d="M134.288 103.793C141.541 68.1694 153.608 38.2982 166.259 32.0757" stroke="black" stroke-width="0.901572" stroke-miterlimit="10"/>
<path d="M180.494 28.6926C180.494 28.6926 189.359 34.8471 191.133 33.8384C192.907 32.8296 194.173 27.0832 194.173 27.0832C195.144 27.2192 195.907 27.4628 196.86 27.1965C197.756 26.7488 196.173 22.8612 196.34 20.073C196.508 17.2848 197.334 13.6125 196.433 11.9124" stroke="black" stroke-width="0.901572" stroke-miterlimit="10"/>
<path d="M171.038 29.0097C172.901 27.3139 174.574 25.4294 176.032 23.3879" stroke="black" stroke-width="0.901572" stroke-miterlimit="10"/>
<path d="M185.51 32.7896C185.51 32.7896 180.661 38.349 180.696 40.4969" stroke="black" stroke-width="0.901572" stroke-miterlimit="10"/>
<path d="M219.452 66.7471L224.139 75.5707" stroke="black" stroke-width="0.901572" stroke-miterlimit="10"/>
<path d="M234.039 61.5958C234.039 61.5958 235.547 58.0142 236.46 57.2378C237.038 56.7391 238.714 57.3114 239.824 57.8045C239.925 57.8483 240.013 57.9184 240.077 58.0072C240.141 58.0961 240.18 58.2003 240.188 58.3089C240.199 58.4185 240.177 58.5288 240.124 58.6263C240.076 58.7247 240 58.8073 239.905 58.8642L238.171 59.958C238.171 59.958 238.125 61.7261 239.431 61.7941C240.332 61.7941 245.973 59.0739 249.024 57.5325C249.093 57.5073 249.169 57.5073 249.238 57.5325C249.311 57.5531 249.374 57.597 249.417 57.6571C249.458 57.7174 249.476 57.7893 249.469 57.8611C249.465 57.9335 249.434 58.002 249.383 58.0539C246.36 60.8251 243.025 64.8544 238.188 67.0646" stroke="black" stroke-width="0.901572" stroke-miterlimit="10"/>
<path d="M238.177 59.9466L255.226 52.0523C255.306 52.0168 255.392 51.9975 255.48 51.9956C255.565 51.9962 255.65 52.0136 255.728 52.0467C255.808 52.0781 255.879 52.1265 255.937 52.1882C255.995 52.2499 256.038 52.3235 256.064 52.4036L256.335 53.2084C256.399 53.3727 256.399 53.5541 256.335 53.7184C256.267 53.8811 256.139 54.0127 255.977 54.0868L239.246 61.9584L238.177 59.9466Z" fill="black"/>
<path d="M155.469 53.9678C155.469 53.9678 152.458 104.405 175.841 104.269L176.338 97.6271C176.338 97.6271 168.53 98.1938 164.346 89.9935C160.162 81.7932 155.469 53.9678 155.469 53.9678Z" fill="black"/>
<path d="M175.5 55.4468L180.314 69.7335L179.736 74.0688L176.685 62.4343L175.5 55.4468Z" fill="black"/>
<path d="M172.998 27.1169L180.684 39.4259L171.171 28.8964L172.998 27.1169Z" fill="black"/>
<path d="M173.472 25.5529C172.969 24.2495 167.791 7.20281 172.957 3.60987C178.124 0.0169353 187.29 -0.963428 193.954 1.81345C200.617 4.59032 200.409 9.91736 196.433 11.9122C192.457 13.907 184.788 11.2888 183.955 12.5979C183.584 13.2596 183.33 13.9781 183.204 14.723C183.175 14.8833 183.109 15.035 183.012 15.1669C182.914 15.2988 182.788 15.4074 182.642 15.4848C182.496 15.5621 182.334 15.6061 182.168 15.6136C182.002 15.621 181.837 15.5917 181.684 15.5278C181.072 15.2477 180.38 15.1836 179.725 15.3465C177.725 15.8395 178.956 24.0398 177.454 25.0202C175.951 26.0006 173.472 25.5529 173.472 25.5529Z" fill="black"/>
<path d="M195.924 131.04C183.747 134.129 166.271 135.455 152.134 131.273C140.437 127.804 135.86 116.612 133.693 103.504C138.605 106.853 152.996 104.445 175.246 103.98L224.711 104.547C226.294 104.565 227.848 104.959 229.241 105.697C230.634 106.434 231.823 107.492 232.706 108.78C233.59 110.068 234.141 111.547 234.313 113.09C234.485 114.633 234.272 116.193 233.692 117.638L191 213.599L182.054 213.446L207.835 126.461C205.235 128.11 201.05 129.726 195.924 131.029C183.747 134.118 166.271 135.444 152.134 131.261" fill="#2A2D2A"/>
<path d="M198.126 133.54H138.455C136.469 133.54 134.86 135.118 134.86 137.064V138.328C134.86 140.275 136.469 141.853 138.455 141.853H198.126C200.111 141.853 201.721 140.275 201.721 138.328V137.064C201.721 135.118 200.111 133.54 198.126 133.54Z" fill="white" stroke="black" stroke-width="0.74553" stroke-miterlimit="10"/>
<path d="M145.546 141.978L127.307 257.513" stroke="black" stroke-width="0.74553" stroke-miterlimit="10"/>
<path d="M193 141.978L211.234 257.513" stroke="black" stroke-width="0.74553" stroke-miterlimit="10"/>
<path d="M169.27 142.165V257.513" stroke="black" stroke-width="0.74553" stroke-miterlimit="10"/>
<path d="M134.323 217.792L204.044 218.223" stroke="black" stroke-width="0.74553" stroke-miterlimit="10"/>
<path d="M58.7871 221.402H97.7107L93.8328 259.02H61.7692L58.7871 221.402Z" stroke="black" stroke-width="0.57793" stroke-miterlimit="10"/>
<path d="M33.8494 259.915C34.6412 259.915 61.6594 250.848 61.6594 250.848L62.2373 258.782L33.8494 259.915Z" fill="black"/>
<path d="M60.989 175.09L77.3098 188.623C77.3098 188.623 77.0612 214.851 77.0901 216.613" stroke="black" stroke-width="0.57793" stroke-miterlimit="10"/>
<path d="M73.1891 185.206L77.5698 156.581L102.346 142.215" stroke="black" stroke-width="0.57793" stroke-miterlimit="10" stroke-linecap="round"/>
<path d="M87.7703 150.665L67.1844 112.107L46.0611 100.784" stroke="black" stroke-width="0.57793" stroke-miterlimit="10" stroke-linecap="round"/>
<path d="M69.0396 175.3C68.4616 175.991 66.9475 175.702 66.9475 175.702C66.9475 175.702 66.3117 174.303 66.8665 173.617C66.9684 173.446 67.1064 173.3 67.2712 173.186C67.436 173.073 67.6238 172.995 67.8218 172.959C68.0198 172.923 68.2234 172.929 68.4187 172.977C68.6141 173.025 68.7967 173.114 68.9541 173.237C69.1115 173.36 69.2401 173.515 69.3311 173.691C69.4221 173.867 69.4734 174.06 69.4815 174.258C69.4896 174.455 69.4543 174.652 69.3781 174.834C69.3018 175.017 69.1864 175.182 69.0396 175.317V175.3Z" fill="black"/>
<path d="M66.8376 178.389C66.2597 177.715 66.8376 176.303 66.8376 176.303C66.8376 176.303 68.3634 175.98 68.9356 176.655C69.0859 176.786 69.2056 176.948 69.2864 177.128C69.3672 177.309 69.4072 177.505 69.4038 177.702C69.4003 177.9 69.3535 178.094 69.2665 178.272C69.1795 178.45 69.0544 178.607 68.8996 178.733C68.7449 178.86 68.5641 178.952 68.3698 179.003C68.1755 179.054 67.9722 179.064 67.7737 179.031C67.5752 178.999 67.3861 178.924 67.2196 178.813C67.0531 178.703 66.9131 178.558 66.8089 178.389H66.8376Z" fill="black"/>
<path d="M64.445 176.541C65.2599 176.898 66.4909 175.974 66.4909 175.974C66.4909 175.974 66.3984 174.444 65.5835 174.082C65.4143 173.973 65.2233 173.902 65.0234 173.873C64.8235 173.843 64.6196 173.857 64.4254 173.912C64.2313 173.967 64.0516 174.062 63.8986 174.192C63.7455 174.321 63.6227 174.481 63.5386 174.661C63.4545 174.842 63.4111 175.037 63.4112 175.236C63.4114 175.434 63.4552 175.63 63.5396 175.81C63.624 175.99 63.747 176.15 63.9003 176.279C64.0535 176.408 64.2335 176.503 64.4277 176.558L64.445 176.541Z" fill="black"/>
<path d="M58.4403 170.744C59.1049 171.311 58.7293 172.812 58.7293 172.812C58.7293 172.812 57.267 173.379 56.5966 172.773C56.4244 172.666 56.278 172.524 56.1675 172.356C56.057 172.188 55.9852 171.998 55.9569 171.8C55.9286 171.602 55.9445 171.401 56.0036 171.21C56.0627 171.018 56.1635 170.842 56.299 170.693C56.4346 170.544 56.6017 170.425 56.7886 170.346C56.9756 170.266 57.1779 170.227 57.3817 170.232C57.5854 170.237 57.7857 170.285 57.9685 170.374C58.1513 170.462 58.3123 170.588 58.4403 170.744Z" fill="black"/>
<path d="M61.4571 173.079C60.7405 173.6 59.3303 172.932 59.3303 172.932C59.3303 172.932 59.0933 171.413 59.81 170.892C59.9523 170.749 60.1243 170.639 60.3144 170.568C60.5045 170.497 60.708 170.468 60.9108 170.481C61.1136 170.495 61.311 170.552 61.4892 170.648C61.6674 170.744 61.8223 170.877 61.9431 171.037C62.0638 171.198 62.1477 171.382 62.1887 171.577C62.2298 171.772 62.227 171.974 62.1808 172.168C62.1346 172.362 62.046 172.544 61.9211 172.702C61.7961 172.859 61.6378 172.988 61.4571 173.079Z" fill="black"/>
<path d="M59.4343 175.311C59.8504 174.535 58.9604 173.277 58.9604 173.277C58.9604 173.277 57.3942 173.277 56.9781 174.053C56.8555 174.213 56.7698 174.397 56.727 174.592C56.6842 174.788 56.6853 174.99 56.7302 175.185C56.7751 175.38 56.8627 175.563 56.987 175.721C57.1113 175.88 57.2691 176.01 57.4498 176.102C57.6304 176.195 57.8295 176.247 58.0331 176.257C58.2367 176.267 58.44 176.232 58.6288 176.157C58.8176 176.082 58.9875 175.967 59.1266 175.821C59.2657 175.675 59.3707 175.501 59.4343 175.311Z" fill="black"/>
<path d="M64.0808 184.577C64.5952 183.863 66.1441 184.056 66.1441 184.056C66.1441 184.056 66.8607 185.416 66.3522 186.136C66.2638 186.316 66.1367 186.474 65.9795 186.601C65.8224 186.728 65.639 186.82 65.4421 186.87C65.2452 186.921 65.0394 186.929 64.8391 186.894C64.6387 186.858 64.4485 186.781 64.2817 186.666C64.1149 186.552 63.9755 186.403 63.8731 186.231C63.7707 186.058 63.7078 185.866 63.6887 185.667C63.6696 185.469 63.6948 185.268 63.7625 185.08C63.8302 184.892 63.9388 184.72 64.0808 184.577Z" fill="black"/>
<path d="M66.098 181.369C66.7106 182.01 66.1962 183.455 66.1962 183.455C66.1962 183.455 64.6878 183.863 64.0752 183.223C63.9186 183.1 63.7908 182.945 63.7005 182.769C63.6102 182.594 63.5595 182.401 63.5519 182.204C63.5443 182.008 63.5799 181.812 63.6563 181.63C63.7327 181.448 63.8481 181.284 63.9947 181.15C64.1413 181.016 64.3156 180.914 64.5059 180.852C64.6961 180.789 64.898 180.768 65.0975 180.788C65.297 180.809 65.4895 180.872 65.6622 180.972C65.8348 181.072 65.9835 181.208 66.098 181.369Z" fill="black"/>
<path d="M68.5945 183.081C67.7623 182.77 66.5891 183.784 66.5891 183.784C66.5891 183.784 66.7683 185.303 67.6063 185.615C67.7815 185.712 67.976 185.771 68.1766 185.788C68.3772 185.804 68.5791 185.778 68.7685 185.712C68.9579 185.645 69.1303 185.539 69.274 185.401C69.4178 185.262 69.5295 185.095 69.6014 184.911C69.6733 184.727 69.7039 184.529 69.6908 184.332C69.6778 184.135 69.6216 183.944 69.526 183.77C69.4304 183.596 69.2976 183.445 69.1369 183.326C68.9761 183.207 68.7911 183.124 68.5945 183.081Z" fill="black"/>
<path d="M81.0547 177.947C80.1705 177.845 79.6041 176.417 79.6041 176.417C79.6041 176.417 80.4884 175.153 81.3726 175.249C81.5766 175.239 81.7805 175.272 81.97 175.347C82.1596 175.421 82.3303 175.536 82.4702 175.682C82.6101 175.828 82.7159 176.002 82.7801 176.192C82.8443 176.382 82.8653 176.584 82.8419 176.783C82.8184 176.982 82.7511 177.173 82.6443 177.344C82.5376 177.515 82.3942 177.661 82.224 177.772C82.0538 177.882 81.861 177.956 81.6591 177.986C81.4571 178.016 81.2509 178.003 81.0547 177.947Z" fill="black"/>
<path d="M77.2346 177.737C77.5178 176.904 79.0609 176.66 79.0609 176.66C79.0609 176.66 80.1416 177.794 79.8584 178.598C79.8232 178.792 79.7459 178.977 79.6315 179.139C79.5172 179.301 79.3684 179.437 79.1956 179.537C79.0227 179.638 78.8299 179.701 78.63 179.722C78.4302 179.743 78.228 179.721 78.0374 179.659C77.8468 179.596 77.6723 179.494 77.5255 179.359C77.3788 179.225 77.2634 179.061 77.1872 178.878C77.111 178.696 77.0759 178.499 77.084 178.302C77.0922 178.106 77.1435 177.913 77.2346 177.737Z" fill="black"/>
<path d="M77.5872 174.767C77.7028 175.634 79.1707 176.167 79.1707 176.167C79.1707 176.167 80.448 175.283 80.3266 174.416C80.3293 174.219 80.2889 174.024 80.2081 173.844C80.1272 173.664 80.0078 173.504 79.858 173.373C79.7082 173.242 79.5314 173.144 79.3398 173.087C79.1481 173.029 78.946 173.012 78.7472 173.037C78.5483 173.063 78.3572 173.13 78.1871 173.234C78.017 173.338 77.8719 173.477 77.7613 173.641C77.6508 173.805 77.5775 173.991 77.5464 174.185C77.5154 174.379 77.5273 174.578 77.5814 174.767H77.5872Z" fill="black"/>
<path d="M82.3204 162.3C81.4303 162.204 80.8698 160.77 80.8698 160.77C80.8698 160.77 81.7482 159.506 82.6383 159.602C82.8385 159.597 83.0376 159.634 83.222 159.711C83.4063 159.788 83.5717 159.903 83.7069 160.048C83.8422 160.192 83.9441 160.364 84.0058 160.551C84.0674 160.738 84.0876 160.936 84.0646 161.131C84.0416 161.326 83.9761 161.514 83.8726 161.682C83.769 161.85 83.6299 161.995 83.4645 162.106C83.2991 162.216 83.1113 162.291 82.914 162.325C82.7166 162.358 82.5141 162.35 82.3204 162.3Z" fill="black"/>
<path d="M78.4773 162.09C78.7604 161.257 80.3035 161.013 80.3035 161.013C80.3035 161.013 81.3901 162.147 81.1011 162.951C81.0659 163.145 80.9884 163.33 80.8741 163.492C80.7597 163.654 80.611 163.79 80.4382 163.891C80.2654 163.991 80.0724 164.054 79.8726 164.075C79.6727 164.096 79.4706 164.074 79.28 164.012C79.0894 163.949 78.9148 163.847 78.7681 163.712C78.6213 163.578 78.506 163.414 78.4298 163.231C78.3537 163.049 78.3184 162.852 78.3266 162.655C78.3348 162.459 78.3862 162.266 78.4773 162.09Z" fill="black"/>
<path d="M78.8239 159.12C78.9453 159.987 80.4074 160.52 80.4074 160.52C80.4074 160.52 81.6904 159.636 81.5633 158.769C81.5689 158.57 81.5304 158.372 81.4505 158.189C81.3707 158.006 81.2513 157.842 81.1006 157.709C80.95 157.576 80.7715 157.476 80.5777 157.416C80.3839 157.357 80.1794 157.34 79.9781 157.366C79.7768 157.391 79.5835 157.459 79.4117 157.565C79.2399 157.671 79.0936 157.813 78.9828 157.979C78.872 158.146 78.7994 158.335 78.77 158.532C78.7406 158.729 78.7551 158.929 78.8125 159.12H78.8239Z" fill="black"/>
<path d="M83.1699 189.462C82.3377 189.785 81.1587 188.782 81.1587 188.782C81.1587 188.782 81.3263 187.257 82.1585 186.94C82.3328 186.84 82.5271 186.778 82.7281 186.759C82.9291 186.739 83.132 186.763 83.3228 186.827C83.5137 186.892 83.688 186.997 83.8337 187.134C83.9795 187.271 84.0932 187.437 84.1671 187.621C84.2411 187.806 84.2734 188.004 84.262 188.201C84.2505 188.399 84.1954 188.592 84.1007 188.767C84.0059 188.942 83.8736 189.094 83.713 189.214C83.5523 189.334 83.367 189.419 83.1699 189.462Z" fill="black"/>
<path d="M79.685 191.05C79.5347 190.188 80.7773 189.259 80.7773 189.259C80.7773 189.259 82.2627 189.735 82.4129 190.596C82.4753 190.784 82.4958 190.982 82.4729 191.178C82.45 191.374 82.3843 191.562 82.2803 191.731C82.1763 191.9 82.0364 192.045 81.8701 192.156C81.7039 192.267 81.5153 192.341 81.317 192.374C81.1188 192.407 80.9157 192.398 80.7215 192.347C80.5272 192.296 80.3465 192.204 80.1916 192.078C80.0368 191.953 79.9114 191.796 79.8239 191.618C79.7365 191.441 79.689 191.247 79.685 191.05Z" fill="black"/>
<path d="M78.5638 188.272C79.0839 188.986 80.6328 188.776 80.6328 188.776C80.6328 188.776 81.3379 187.405 80.8178 186.691C80.7278 186.511 80.599 186.354 80.4405 186.228C80.282 186.102 80.0976 186.012 79.9 185.963C79.7024 185.915 79.4964 185.909 79.2962 185.946C79.096 185.983 78.9064 186.063 78.7407 186.179C78.575 186.295 78.4371 186.445 78.3365 186.619C78.2359 186.793 78.1751 186.986 78.1583 187.185C78.1414 187.384 78.1689 187.585 78.239 187.772C78.309 187.96 78.4198 188.13 78.5638 188.272Z" fill="black"/>
<path d="M72.1257 201.624C73.0099 201.754 73.5185 203.205 73.5185 203.205C73.5185 203.205 72.5938 204.44 71.7096 204.304C71.5081 204.304 71.3089 204.262 71.1258 204.18C70.9426 204.097 70.7797 203.977 70.6483 203.827C70.5169 203.677 70.4201 203.501 70.3645 203.311C70.3089 203.121 70.2958 202.922 70.3262 202.727C70.3565 202.531 70.4295 202.345 70.5402 202.179C70.6509 202.014 70.7967 201.875 70.9676 201.77C71.1385 201.665 71.3305 201.598 71.5304 201.573C71.7303 201.548 71.9333 201.565 72.1257 201.624Z" fill="black"/>
<path d="M75.9573 201.958C75.6395 202.78 74.0906 202.967 74.0906 202.967C74.0906 202.967 73.0503 201.833 73.3624 201C73.4027 200.805 73.4859 200.62 73.6061 200.459C73.7263 200.298 73.8808 200.165 74.0587 200.068C74.2367 199.972 74.4339 199.914 74.6368 199.9C74.8397 199.885 75.0433 199.914 75.2336 199.984C75.424 200.055 75.5966 200.165 75.7393 200.307C75.8821 200.449 75.9916 200.619 76.0605 200.807C76.1293 200.995 76.1557 201.195 76.1379 201.394C76.1201 201.592 76.0585 201.785 75.9573 201.958Z" fill="black"/>
<path d="M75.495 204.911C75.4141 204.038 73.9694 203.454 73.9694 203.454C73.9694 203.454 72.6575 204.293 72.7384 205.154C72.7288 205.351 72.7623 205.547 72.8366 205.729C72.911 205.912 73.0244 206.076 73.1693 206.212C73.3143 206.348 73.4873 206.451 73.6766 206.516C73.8659 206.58 74.0671 206.604 74.2666 206.586C74.4662 206.567 74.6593 206.507 74.833 206.409C75.0067 206.311 75.1569 206.177 75.2734 206.017C75.3899 205.857 75.47 205.675 75.5083 205.482C75.5465 205.289 75.5419 205.09 75.495 204.899V204.911Z" fill="black"/>
<path d="M71.6981 161.569C72.3801 162.135 72.0448 163.632 72.0448 163.632C72.0448 163.632 70.6 164.198 69.9123 163.632C69.742 163.528 69.5965 163.389 69.4857 163.225C69.375 163.061 69.3015 162.875 69.2703 162.681C69.2391 162.487 69.2508 162.288 69.3048 162.099C69.3588 161.909 69.4538 161.733 69.5832 161.583C69.7126 161.433 69.8735 161.311 70.0549 161.227C70.2363 161.143 70.4341 161.099 70.6347 161.096C70.8353 161.094 71.0341 161.134 71.2175 161.213C71.401 161.293 71.565 161.41 71.6981 161.557V161.569Z" fill="black"/>
<path d="M74.7784 163.824C74.0733 164.391 72.6517 163.728 72.6517 163.728C72.6517 163.728 72.3685 162.22 73.0735 161.682C73.2116 161.535 73.3806 161.419 73.5689 161.343C73.7572 161.266 73.9603 161.231 74.1639 161.239C74.3676 161.247 74.5669 161.299 74.7482 161.39C74.9295 161.481 75.0884 161.61 75.2138 161.768C75.3392 161.925 75.428 162.108 75.4743 162.302C75.5206 162.497 75.5232 162.699 75.4818 162.895C75.4403 163.09 75.3559 163.275 75.2344 163.435C75.113 163.596 74.9574 163.729 74.7784 163.824Z" fill="black"/>
<path d="M72.8192 166.108C73.2122 165.32 72.2875 164.085 72.2875 164.085C72.2875 164.085 70.7213 164.13 70.3283 164.918C70.2102 165.081 70.1297 165.267 70.0924 165.464C70.0551 165.66 70.0619 165.862 70.1123 166.056C70.1627 166.25 70.2554 166.431 70.3842 166.586C70.5129 166.741 70.6745 166.866 70.8578 166.954C71.0411 167.041 71.2416 167.089 71.4455 167.093C71.6493 167.097 71.8517 167.057 72.0384 166.976C72.225 166.896 72.3914 166.777 72.5263 166.627C72.6611 166.477 72.7611 166.3 72.8192 166.108Z" fill="black"/>
<path d="M42.2928 95.2859C42.9806 95.8526 42.6397 97.3488 42.6397 97.3488C42.6397 97.3488 41.1949 97.9155 40.5129 97.3488C40.3427 97.245 40.1972 97.1066 40.0862 96.943C39.9753 96.7793 39.9015 96.5942 39.8699 96.4001C39.8383 96.2061 39.8496 96.0076 39.9031 95.8182C39.9565 95.6288 40.0509 95.4529 40.1798 95.3023C40.3086 95.1518 40.469 95.0301 40.6499 94.9456C40.8309 94.8612 41.0282 94.8158 41.2286 94.8127C41.4289 94.8095 41.6276 94.8486 41.8113 94.9273C41.9949 95.006 42.1591 95.1225 42.2928 95.2689V95.2859Z" fill="black"/>
<path d="M45.3791 97.5419C44.6741 98.1086 43.2466 97.4513 43.2466 97.4513C43.2466 97.4513 42.9692 95.9438 43.6743 95.4054C43.8126 95.2623 43.9808 95.1501 44.1674 95.0766C44.354 95.003 44.5546 94.9697 44.7555 94.9791C44.9564 94.9884 45.1528 95.0401 45.3314 95.1306C45.5101 95.2212 45.6668 95.3485 45.7907 95.5038C45.9147 95.6591 46.0029 95.8388 46.0496 96.0307C46.0963 96.2225 46.1003 96.4219 46.0612 96.6154C46.0221 96.8088 45.941 96.9917 45.8233 97.1516C45.7056 97.3115 45.5541 97.4447 45.3791 97.5419Z" fill="black"/>
<path d="M43.4143 99.8312C43.8073 99.0435 42.8825 97.8081 42.8825 97.8081C42.8825 97.8081 41.3221 97.8534 40.9291 98.6412C40.8147 98.8036 40.7373 98.9883 40.7024 99.1828C40.6675 99.3773 40.6757 99.5769 40.7267 99.7679C40.7776 99.959 40.8701 100.137 40.9977 100.29C41.1253 100.443 41.285 100.566 41.466 100.653C41.647 100.74 41.8449 100.787 42.0462 100.792C42.2475 100.797 42.4475 100.759 42.6324 100.681C42.8174 100.603 42.983 100.486 43.118 100.34C43.2529 100.193 43.354 100.02 43.4143 99.8312Z" fill="black"/>
<path d="M46.691 107.403C47.1649 106.655 48.7253 106.768 48.7253 106.768C48.7253 106.768 49.5171 108.089 49.0432 108.837C48.9624 109.016 48.8432 109.177 48.6936 109.308C48.544 109.438 48.3676 109.536 48.1763 109.594C47.985 109.651 47.7833 109.668 47.5847 109.643C47.3861 109.618 47.1953 109.552 47.0253 109.448C46.8552 109.344 46.7099 109.206 46.599 109.043C46.4882 108.879 46.4144 108.694 46.3827 108.5C46.351 108.306 46.3621 108.108 46.4153 107.919C46.4685 107.729 46.5625 107.554 46.691 107.403Z" fill="black"/>
<path d="M48.5288 104.087C49.1761 104.694 48.7427 106.167 48.7427 106.167C48.7427 106.167 47.2573 106.655 46.6158 106.048C46.452 105.934 46.3152 105.787 46.2146 105.616C46.1139 105.446 46.0519 105.256 46.0328 105.06C46.0137 104.864 46.0378 104.666 46.1036 104.48C46.1695 104.294 46.2755 104.124 46.4143 103.982C46.5532 103.839 46.7218 103.728 46.9085 103.655C47.0952 103.582 47.2956 103.55 47.4963 103.56C47.6969 103.57 47.8931 103.622 48.0712 103.713C48.2494 103.804 48.4054 103.932 48.5288 104.087Z" fill="black"/>
<path d="M51.1179 105.663C50.2683 105.397 49.153 106.468 49.153 106.468C49.153 106.468 49.4188 107.981 50.2683 108.247C50.4496 108.34 50.6493 108.393 50.8534 108.402C51.0576 108.411 51.2612 108.376 51.4503 108.3C51.6394 108.224 51.8093 108.109 51.9481 107.961C52.0869 107.814 52.1914 107.639 52.2541 107.449C52.3168 107.258 52.3362 107.056 52.3111 106.857C52.286 106.658 52.2171 106.467 52.1089 106.297C52.0007 106.127 51.8559 105.982 51.6848 105.873C51.5136 105.763 51.3201 105.692 51.1179 105.663Z" fill="black"/>
<path d="M61.2028 103.169C60.7925 103.951 59.2264 103.957 59.2264 103.957C59.2264 103.957 58.3305 102.699 58.7408 101.923C58.8035 101.732 58.9076 101.558 59.046 101.411C59.1844 101.264 59.3538 101.149 59.5423 101.073C59.7308 100.996 59.9339 100.961 60.1376 100.97C60.3412 100.979 60.5406 101.031 60.7217 101.122C60.9028 101.214 61.0614 101.343 61.1865 101.501C61.3115 101.659 61.4 101.842 61.4458 102.037C61.4916 102.231 61.4935 102.434 61.4516 102.629C61.4096 102.825 61.3247 103.009 61.2028 103.169Z" fill="black"/>
<path d="M59.6367 106.615C58.9431 106.048 59.2611 104.558 59.2611 104.558C59.2611 104.558 60.7001 103.957 61.3936 104.512C61.5764 104.608 61.7355 104.741 61.8595 104.904C61.9834 105.067 62.0693 105.254 62.1106 105.453C62.152 105.652 62.1479 105.858 62.0988 106.055C62.0497 106.252 61.9568 106.436 61.8266 106.594C61.6964 106.752 61.5322 106.88 61.3458 106.968C61.1593 107.057 60.9551 107.104 60.7481 107.106C60.541 107.108 60.3361 107.065 60.148 106.98C59.9598 106.895 59.7931 106.77 59.6598 106.615H59.6367Z" fill="black"/>
<path d="M56.9319 105.244C57.7988 105.448 58.8275 104.286 58.8275 104.286C58.8275 104.286 58.4403 102.801 57.5677 102.586C57.3809 102.513 57.1804 102.481 56.9797 102.491C56.779 102.501 56.5829 102.553 56.4047 102.644C56.2265 102.735 56.0704 102.863 55.947 103.018C55.8236 103.174 55.7358 103.353 55.6897 103.545C55.6435 103.737 55.6401 103.936 55.6795 104.129C55.7189 104.323 55.8004 104.505 55.9182 104.665C56.0361 104.824 56.1876 104.957 56.3626 105.054C56.5375 105.151 56.7317 105.21 56.9319 105.227V105.244Z" fill="black"/>
<path d="M72.6401 110.633C71.9408 111.2 70.5133 110.565 70.5133 110.565C70.5133 110.565 70.2128 109.063 70.9121 108.513C71.0494 108.371 71.2163 108.259 71.4014 108.186C71.5865 108.112 71.7854 108.078 71.9851 108.086C72.1848 108.094 72.3804 108.143 72.5588 108.232C72.7371 108.32 72.8942 108.445 73.0192 108.598C73.1442 108.751 73.2344 108.928 73.2836 109.118C73.3329 109.308 73.34 109.506 73.3046 109.699C73.2693 109.891 73.1922 110.075 73.0786 110.236C72.965 110.397 72.8174 110.532 72.6458 110.633H72.6401Z" fill="black"/>
<path d="M69.7851 113.16C69.3805 112.378 70.2936 111.131 70.2936 111.131C70.2936 111.131 71.8541 111.131 72.2586 111.936C72.3791 112.097 72.4623 112.283 72.5024 112.479C72.5426 112.675 72.5388 112.877 72.4912 113.071C72.4436 113.266 72.3534 113.448 72.2269 113.604C72.1003 113.761 71.9405 113.889 71.7584 113.979C71.5764 114.069 71.3764 114.119 71.1726 114.126C70.9688 114.133 70.766 114.096 70.5782 114.018C70.3904 113.94 70.2222 113.823 70.0852 113.675C69.9482 113.527 69.8458 113.351 69.7851 113.16Z" fill="black"/>
<path d="M67.8778 110.825C68.5887 111.358 70.0046 110.706 70.0046 110.706C70.0046 110.706 70.2648 109.199 69.5539 108.666C69.4135 108.525 69.2438 108.415 69.0563 108.345C68.8688 108.274 68.6679 108.243 68.4673 108.256C68.2668 108.268 68.0713 108.322 67.8941 108.415C67.7169 108.508 67.5621 108.637 67.4404 108.794C67.3187 108.951 67.233 109.131 67.1889 109.323C67.1448 109.516 67.1434 109.715 67.1849 109.908C67.2264 110.1 67.3099 110.282 67.4294 110.441C67.549 110.599 67.7019 110.73 67.8778 110.825Z" fill="black"/>
<path d="M81.6327 127.776C80.9334 128.343 79.5002 127.708 79.5002 127.708C79.5002 127.708 79.2054 126.206 79.9047 125.657C80.042 125.514 80.2088 125.402 80.3939 125.329C80.579 125.255 80.7781 125.221 80.9777 125.229C81.1774 125.237 81.3731 125.287 81.5514 125.375C81.7298 125.463 81.8867 125.588 82.0117 125.741C82.1367 125.894 82.227 126.071 82.2763 126.261C82.3255 126.451 82.3326 126.649 82.2973 126.842C82.2619 127.035 82.1849 127.218 82.0712 127.379C81.9576 127.54 81.81 127.675 81.6385 127.776H81.6327Z" fill="black"/>
<path d="M78.7893 130.303C78.3848 129.521 79.2921 128.274 79.2921 128.274C79.2921 128.274 80.8583 128.274 81.2629 129.079C81.3834 129.24 81.4665 129.426 81.5067 129.622C81.5469 129.818 81.543 130.02 81.4954 130.214C81.4478 130.409 81.3576 130.591 81.231 130.748C81.1044 130.904 80.9446 131.032 80.7626 131.122C80.5805 131.212 80.3807 131.263 80.1769 131.269C79.9731 131.276 79.7702 131.239 79.5824 131.161C79.3946 131.083 79.2264 130.966 79.0894 130.818C78.9525 130.67 78.8501 130.494 78.7893 130.303Z" fill="black"/>
<path d="M76.882 127.951C77.5929 128.484 79.0088 127.832 79.0088 127.832C79.0088 127.832 79.2688 126.325 78.558 125.792C78.4176 125.651 78.2479 125.541 78.0605 125.471C77.873 125.4 77.6721 125.369 77.4715 125.382C77.271 125.394 77.0754 125.448 76.8982 125.541C76.721 125.634 76.5663 125.763 76.4446 125.92C76.3229 126.076 76.2371 126.257 76.193 126.449C76.1489 126.642 76.1476 126.841 76.1891 127.034C76.2306 127.226 76.3139 127.408 76.4335 127.567C76.553 127.725 76.7061 127.856 76.882 127.951Z" fill="black"/>
<path d="M59.5847 114.736C60.1626 114.061 61.6883 114.384 61.6883 114.384C61.6883 114.384 62.2662 115.801 61.6883 116.476C61.5854 116.648 61.4453 116.797 61.2777 116.912C61.1101 117.026 60.9191 117.103 60.718 117.138C60.5168 117.172 60.3105 117.164 60.1132 117.112C59.9159 117.06 59.7326 116.967 59.5758 116.839C59.419 116.711 59.2926 116.55 59.2054 116.369C59.1182 116.188 59.0724 115.991 59.0711 115.791C59.0697 115.59 59.1128 115.392 59.1975 115.21C59.2822 115.028 59.4065 114.866 59.5615 114.736H59.5847Z" fill="black"/>
<path d="M61.8732 111.704C62.4512 112.39 61.7865 113.789 61.7865 113.789C61.7865 113.789 60.2492 114.073 59.7002 113.381C59.5612 113.245 59.4531 113.081 59.383 112.901C59.313 112.721 59.2825 112.528 59.2936 112.335C59.3047 112.143 59.3571 111.954 59.4474 111.783C59.5377 111.612 59.664 111.461 59.8177 111.34C59.9715 111.22 60.1495 111.133 60.3399 111.085C60.5304 111.036 60.7291 111.028 60.9231 111.06C61.1171 111.092 61.302 111.164 61.4658 111.271C61.6295 111.378 61.7683 111.518 61.8732 111.681V111.704Z" fill="black"/>
<path d="M64.2139 113.614C63.4106 113.234 62.1506 114.147 62.1506 114.147C62.1506 114.147 62.2026 115.677 63.006 116.062C63.1726 116.176 63.3624 116.253 63.5624 116.288C63.7625 116.323 63.9679 116.316 64.1645 116.265C64.3611 116.215 64.5441 116.123 64.7011 115.997C64.8581 115.87 64.9852 115.712 65.0737 115.533C65.1622 115.353 65.21 115.157 65.2137 114.958C65.2174 114.759 65.1769 114.561 65.0952 114.379C65.0134 114.196 64.8923 114.033 64.7402 113.901C64.588 113.769 64.4085 113.671 64.2139 113.614Z" fill="black"/>
<path d="M75.027 140.855C75.6049 140.181 77.1306 140.504 77.1306 140.504C77.1306 140.504 77.7085 141.921 77.1306 142.595C77.0251 142.762 76.8843 142.905 76.7177 143.014C76.5512 143.123 76.3627 143.195 76.1651 143.226C75.9674 143.258 75.7653 143.247 75.5722 143.195C75.3791 143.143 75.1998 143.051 75.046 142.926C74.8923 142.8 74.7678 142.643 74.6812 142.466C74.5945 142.289 74.5476 142.096 74.5436 141.9C74.5396 141.704 74.5786 141.509 74.658 141.329C74.7374 141.148 74.8554 140.987 75.0038 140.855H75.027Z" fill="black"/>
<path d="M77.3155 137.824C77.8935 138.509 77.2288 139.909 77.2288 139.909C77.2288 139.909 75.6973 140.192 75.1425 139.501C75.0035 139.364 74.8954 139.201 74.8253 139.02C74.7553 138.84 74.7248 138.647 74.7359 138.455C74.747 138.262 74.7995 138.074 74.8898 137.903C74.9801 137.731 75.1062 137.58 75.26 137.46C75.4138 137.34 75.5917 137.253 75.7822 137.204C75.9727 137.156 76.1715 137.148 76.3655 137.18C76.5595 137.212 76.7443 137.284 76.908 137.391C77.0718 137.498 77.2106 137.638 77.3155 137.801V137.824Z" fill="black"/>
<path d="M79.6562 139.734C78.8529 139.354 77.5987 140.266 77.5987 140.266C77.5987 140.266 77.6449 141.802 78.4541 142.182C78.6208 142.297 78.8111 142.375 79.0117 142.41C79.2122 142.446 79.4183 142.438 79.6156 142.388C79.8128 142.338 79.9965 142.246 80.154 142.119C80.3114 141.992 80.4387 141.833 80.5272 141.653C80.6156 141.473 80.6631 141.276 80.6662 141.076C80.6692 140.876 80.6278 140.678 80.545 140.495C80.4621 140.313 80.3396 140.15 80.1861 140.018C80.0327 139.887 79.8518 139.79 79.6562 139.734Z" fill="black"/>
<path d="M67.0978 122.88C67.9704 122.681 68.9876 123.843 68.9876 123.843C68.9876 123.843 68.5887 125.328 67.716 125.543C67.5273 125.62 67.3238 125.656 67.1196 125.648C66.9154 125.639 66.7155 125.588 66.5338 125.496C66.3521 125.404 66.1931 125.274 66.0678 125.116C65.9424 124.958 65.8538 124.775 65.8081 124.579C65.7625 124.384 65.761 124.181 65.8035 123.985C65.846 123.789 65.9316 123.604 66.0544 123.444C66.1771 123.284 66.3341 123.152 66.5143 123.057C66.6945 122.963 66.8937 122.908 67.0978 122.897V122.88Z" fill="black"/>
<path d="M70.7907 121.82C70.7907 122.698 69.4325 123.429 69.4325 123.429C69.4325 123.429 68.0339 122.744 68.0224 121.865C67.9905 121.671 68.0016 121.473 68.0548 121.283C68.1081 121.094 68.2023 120.917 68.3311 120.767C68.4598 120.616 68.6201 120.494 68.8011 120.41C68.982 120.325 69.1794 120.279 69.3798 120.276C69.5803 120.273 69.7791 120.312 69.9629 120.39C70.1466 120.469 70.311 120.586 70.4448 120.732C70.5786 120.879 70.6788 121.051 70.7385 121.239C70.7981 121.427 70.8159 121.625 70.7907 121.82Z" fill="black"/>
<path d="M71.4726 124.733C71.0681 123.951 69.5019 123.934 69.5019 123.934C69.5019 123.934 68.6003 125.18 69.0049 125.962C69.0691 126.149 69.1736 126.319 69.311 126.463C69.4485 126.606 69.6158 126.719 69.8016 126.793C69.9874 126.867 70.1873 126.902 70.3877 126.893C70.5882 126.885 70.7847 126.835 70.9636 126.746C71.1424 126.657 71.2996 126.531 71.4245 126.377C71.5494 126.223 71.6391 126.044 71.6874 125.853C71.7357 125.662 71.7415 125.463 71.7044 125.27C71.6674 125.077 71.5883 124.893 71.4726 124.733Z" fill="black"/>
<path d="M107.062 141.552C106.235 141.881 105.039 140.884 105.039 140.884C105.039 140.884 105.195 139.359 106.027 139.031C106.201 138.927 106.396 138.862 106.598 138.84C106.801 138.818 107.006 138.839 107.199 138.902C107.392 138.966 107.569 139.069 107.717 139.206C107.865 139.343 107.981 139.51 108.057 139.695C108.133 139.88 108.167 140.079 108.157 140.278C108.146 140.478 108.092 140.673 107.997 140.849C107.903 141.026 107.77 141.18 107.608 141.302C107.447 141.423 107.26 141.509 107.062 141.552Z" fill="black"/>
<path d="M103.594 143.173C103.438 142.306 104.675 141.371 104.675 141.371C104.675 141.371 106.16 141.83 106.322 142.697C106.39 142.886 106.416 143.086 106.397 143.285C106.378 143.485 106.315 143.677 106.212 143.85C106.11 144.023 105.97 144.172 105.803 144.286C105.636 144.401 105.445 144.478 105.244 144.513C105.044 144.548 104.837 144.54 104.64 144.489C104.443 144.438 104.26 144.346 104.103 144.218C103.946 144.091 103.819 143.931 103.731 143.751C103.643 143.57 103.596 143.373 103.594 143.173Z" fill="black"/>
<path d="M102.438 140.419C102.964 141.128 104.513 140.907 104.513 140.907C104.513 140.907 105.201 139.53 104.675 138.821C104.581 138.647 104.451 138.494 104.292 138.374C104.133 138.253 103.949 138.168 103.754 138.123C103.558 138.078 103.355 138.076 103.158 138.115C102.961 138.154 102.775 138.234 102.613 138.35C102.451 138.466 102.316 138.615 102.217 138.787C102.119 138.959 102.059 139.149 102.043 139.346C102.026 139.542 102.053 139.739 102.121 139.925C102.189 140.11 102.297 140.279 102.438 140.419Z" fill="black"/>
<path d="M99.3174 151.561C98.4563 151.328 98.1268 149.826 98.1268 149.826C98.1268 149.826 99.2017 148.693 100.063 148.948C100.262 148.973 100.454 149.039 100.625 149.143C100.796 149.247 100.942 149.385 101.054 149.55C101.165 149.714 101.239 149.9 101.27 150.095C101.302 150.289 101.29 150.488 101.236 150.678C101.181 150.868 101.086 151.044 100.956 151.195C100.826 151.345 100.665 151.467 100.483 151.55C100.301 151.634 100.102 151.678 99.9011 151.68C99.7 151.682 99.501 151.641 99.3174 151.561Z" fill="black"/>
<path d="M95.5608 150.767C95.9711 149.985 97.5373 149.985 97.5373 149.985C97.5373 149.985 98.4274 151.238 98.017 152.02C97.9509 152.205 97.8447 152.375 97.7059 152.517C97.5671 152.659 97.3986 152.77 97.2122 152.842C97.0258 152.915 96.8257 152.947 96.6254 152.937C96.4251 152.927 96.2294 152.875 96.0514 152.784C95.8735 152.694 95.7174 152.566 95.594 152.411C95.4706 152.256 95.3827 152.077 95.3362 151.886C95.2897 151.695 95.2856 151.496 95.3243 151.303C95.3631 151.11 95.4438 150.927 95.5608 150.767Z" fill="black"/>
<path d="M96.3756 147.888C96.3756 148.761 97.7164 149.509 97.7164 149.509C97.7164 149.509 99.1208 148.835 99.1439 147.956C99.1831 147.76 99.1781 147.557 99.1292 147.363C99.0804 147.168 98.9888 146.986 98.8609 146.83C98.733 146.674 98.5719 146.547 98.3888 146.458C98.2057 146.369 98.0051 146.32 97.8008 146.315C97.5966 146.31 97.3936 146.349 97.2062 146.429C97.0188 146.509 96.8515 146.628 96.7158 146.777C96.5801 146.927 96.4794 147.104 96.4206 147.296C96.3619 147.488 96.3465 147.69 96.3756 147.888Z" fill="black"/>
<path d="M93.1912 141.859C93.1392 142.731 91.7117 143.366 91.7117 143.366C91.7117 143.366 90.3709 142.573 90.4229 141.7C90.4024 141.502 90.4261 141.301 90.4922 141.113C90.5583 140.924 90.6654 140.752 90.806 140.608C90.9466 140.464 91.1175 140.352 91.3068 140.279C91.496 140.206 91.6991 140.174 91.902 140.186C92.105 140.198 92.3031 140.252 92.4824 140.346C92.6617 140.44 92.8179 140.571 92.9405 140.73C93.0631 140.889 93.1489 141.073 93.1922 141.268C93.2355 141.462 93.2352 141.664 93.1912 141.859Z" fill="black"/>
<path d="M93.1912 145.627C92.3301 145.4 91.9949 143.927 91.9949 143.927C91.9949 143.927 93.0641 142.794 93.9252 143.037C94.1285 143.057 94.3249 143.121 94.5007 143.223C94.6765 143.325 94.8275 143.463 94.9431 143.628C95.0587 143.794 95.1361 143.982 95.17 144.179C95.2038 144.377 95.1932 144.579 95.1391 144.773C95.0849 144.966 94.9884 145.145 94.8563 145.298C94.7242 145.451 94.5596 145.573 94.3742 145.657C94.1887 145.742 93.9869 145.785 93.7826 145.785C93.5782 145.784 93.3764 145.74 93.1912 145.655V145.627Z" fill="black"/>
<path d="M90.1629 145.458C91.0414 145.293 91.498 143.825 91.498 143.825C91.498 143.825 90.5271 142.624 89.6486 142.788C89.4446 142.793 89.2439 142.84 89.0607 142.928C88.8774 143.016 88.7158 143.142 88.5873 143.298C88.4587 143.453 88.3663 143.634 88.3164 143.828C88.2664 144.022 88.2602 144.224 88.298 144.421C88.3359 144.617 88.4171 144.804 88.5358 144.966C88.6545 145.129 88.8078 145.264 88.9853 145.363C89.1628 145.462 89.3602 145.521 89.5635 145.538C89.7669 145.554 89.9714 145.527 90.1629 145.458Z" fill="black"/>
<path d="M55.672 216.613H100.751C100.906 216.614 101.059 216.648 101.2 216.715C101.34 216.781 101.463 216.877 101.56 216.996C101.658 217.115 101.727 217.254 101.763 217.402C101.799 217.55 101.8 217.705 101.768 217.854L101.161 220.597C101.111 220.825 100.982 221.029 100.797 221.175C100.612 221.322 100.381 221.402 100.144 221.402H56.7584C56.5469 221.402 56.3404 221.339 56.1661 221.221C55.9917 221.104 55.8577 220.938 55.7817 220.744L54.7241 217.996C54.6662 217.843 54.6463 217.679 54.6658 217.517C54.6853 217.356 54.7438 217.201 54.8364 217.066C54.929 216.931 55.053 216.819 55.1983 216.74C55.3436 216.662 55.506 216.618 55.672 216.613Z" stroke="black" stroke-width="0.57793" stroke-miterlimit="10"/>
<path d="M59.2436 225.72C59.7464 225.72 97.7107 221.402 97.7107 221.402H58.787L59.2436 225.72Z" fill="black"/>
<path d="M0.0693665 201.335C83.6034 222.077 207.292 302.821 341.539 168.84" stroke="#2B3B30" stroke-width="0.57793" stroke-miterlimit="10"/>
<path d="M303.812 49.5872C317.697 49.5872 328.952 38.5502 328.952 24.9353C328.952 11.3205 317.697 0.283447 303.812 0.283447C289.928 0.283447 278.672 11.3205 278.672 24.9353C278.672 38.5502 289.928 49.5872 303.812 49.5872Z" stroke="black" stroke-width="0.57793" stroke-miterlimit="10"/>
<path d="M303.812 8.26855V24.9355H319.578" stroke="black" stroke-width="0.57793" stroke-miterlimit="10"/>
</g>
<defs>
<clipPath id="clip0_35_577">
<rect width="417.006" height="259.916" fill="white"/>
</clipPath>
</defs>
</svg>
