<svg width="40" height="40" viewBox="0 0 40 40" fill="none" xmlns="http://www.w3.org/2000/svg">
<path d="M39.8098 15.9574C39.9991 15.5005 40.0485 14.9977 39.952 14.5126C39.8554 14.0276 39.6171 13.582 39.2673 13.2324L26.7673 0.732422L23.2323 4.26742L31.4648 12.4999H-0.000198648V17.4999H37.4998C37.9942 17.5 38.4776 17.3536 38.8887 17.079C39.2999 16.8044 39.6204 16.4141 39.8098 15.9574ZM0.189802 24.0424C0.00053988 24.4994 -0.0489381 25.0022 0.0476293 25.4872C0.144197 25.9723 0.38247 26.4178 0.732302 26.7674L13.2323 39.2674L16.7673 35.7324L8.5348 27.4999H39.9998V22.4999H2.4998C2.00531 22.4995 1.52182 22.6458 1.11058 22.9204C0.699348 23.195 0.378886 23.5855 0.189802 24.0424Z" fill="#F8F8F8"/>
</svg>
