<svg width="410" height="234" viewBox="0 0 410 234" fill="none" xmlns="http://www.w3.org/2000/svg">
<g clip-path="url(#clip0_35_751)">
<path d="M371.563 138.369H263.949V145.038H371.563" stroke="black" stroke-width="0.668018" stroke-miterlimit="10"/>
<path d="M279.959 145.038V233.579" stroke="black" stroke-width="0.668018" stroke-miterlimit="10"/>
<path d="M29.1465 233.043C29.1465 210.506 38.0994 188.892 54.0355 172.955C69.9717 157.019 91.5858 148.066 114.123 148.066C136.66 148.066 158.274 157.019 174.21 172.955C190.147 188.892 199.1 210.506 199.1 233.043H29.1465Z" fill="#5C6A69"/>
<path d="M328.35 233.579H-36.5726" stroke="black" stroke-width="0.668018" stroke-miterlimit="10"/>
<path d="M242.728 98.8579L244.104 104.455C243.649 104.582 243.183 104.697 242.728 104.807V98.8579Z" stroke="black" stroke-width="0.668018" stroke-miterlimit="10"/>
<path d="M262.959 131.171L257.136 119.619H261.346L264.024 130.739C264.078 130.88 264.078 131.036 264.024 131.177C263.993 131.247 263.95 131.311 263.897 131.367C263.841 131.417 263.777 131.458 263.707 131.488C263.638 131.518 263.564 131.532 263.488 131.528C263.414 131.529 263.339 131.515 263.27 131.488C263.2 131.458 263.138 131.415 263.085 131.361C263.031 131.307 262.988 131.242 262.959 131.171V131.171Z" stroke="black" stroke-width="0.668018" stroke-miterlimit="10"/>
<path d="M262.901 131.17L257.05 119.653H261.26L263.938 130.773C263.953 130.869 263.944 130.968 263.912 131.059C263.879 131.151 263.823 131.233 263.75 131.298C263.677 131.362 263.589 131.407 263.494 131.428C263.399 131.449 263.3 131.446 263.206 131.418C263.081 131.378 262.974 131.297 262.901 131.188V131.17Z" stroke="black" stroke-width="0.668018" stroke-miterlimit="10"/>
<path d="M242.676 98.8525L237.102 76.209" stroke="black" stroke-width="0.668018" stroke-miterlimit="10"/>
<path d="M242.676 88.8551L237.102 76.1858L235.213 61.1611" stroke="black" stroke-width="0.668018" stroke-miterlimit="10"/>
<path d="M244.047 104.45L242.676 104.744L241.663 104.963L237.102 76.209L242.676 98.8525L244.047 104.45Z" fill="black"/>
<path d="M357.362 110.721H313.745C313.328 110.721 312.929 110.886 312.634 111.181C312.339 111.476 312.173 111.876 312.173 112.293V135.167C312.173 135.584 312.339 135.984 312.634 136.278C312.929 136.573 313.328 136.739 313.745 136.739H357.362C357.779 136.739 358.179 136.573 358.474 136.278C358.769 135.984 358.935 135.584 358.935 135.167V112.293C358.935 111.876 358.769 111.476 358.474 111.181C358.179 110.886 357.779 110.721 357.362 110.721V110.721Z" stroke="black" stroke-width="0.668018" stroke-miterlimit="10"/>
<path d="M357.829 136.733H313.233V138.369H357.829V136.733Z" fill="black"/>
<path d="M335.583 126.316C335.839 126.317 336.091 126.242 336.305 126.1C336.519 125.958 336.686 125.756 336.784 125.519C336.883 125.282 336.909 125.021 336.86 124.769C336.81 124.517 336.686 124.286 336.505 124.104C336.323 123.923 336.092 123.799 335.84 123.749C335.588 123.699 335.327 123.726 335.09 123.824C334.853 123.923 334.651 124.09 334.509 124.304C334.367 124.518 334.292 124.769 334.293 125.026C334.294 125.368 334.431 125.695 334.672 125.937C334.914 126.178 335.241 126.314 335.583 126.316V126.316Z" stroke="black" stroke-width="0.668018" stroke-miterlimit="10"/>
<path d="M238.409 105.683L233.226 229.704L224.588 229.128L213.26 106.12C217.438 106.597 221.639 106.835 225.843 106.834C230.058 106.833 234.264 106.448 238.409 105.683Z" fill="#2A2D2A"/>
<path d="M193.387 101.668C197.265 103.073 201.257 104.139 205.319 104.853C212.068 106.005 219.203 106.857 219.203 106.857C218.628 108.061 200.2 229.081 200.2 229.081H192.321L193.387 101.668Z" fill="#2A2D2A"/>
<path d="M214.072 115.887L206.425 188.085L215.46 129.673L214.072 115.887Z" fill="black"/>
<path d="M184.351 233.136H199.733L200.096 229.105C200.096 229.105 188.21 228.35 184.052 232.445C184.006 232.503 183.976 232.572 183.965 232.646C183.959 232.723 183.971 232.8 184 232.871C184.032 232.939 184.081 232.997 184.144 233.038C184.201 233.091 184.274 233.125 184.351 233.136Z" fill="white" stroke="black" stroke-width="0.668018" stroke-miterlimit="10"/>
<path d="M240.033 233.487H225.388L224.859 229.455C224.859 229.455 236.175 228.684 240.332 232.749C240.396 232.807 240.438 232.884 240.453 232.968C240.479 233.049 240.479 233.135 240.453 233.216C240.419 233.292 240.363 233.356 240.292 233.4C240.217 233.456 240.126 233.487 240.033 233.487Z" fill="white" stroke="black" stroke-width="0.668018" stroke-miterlimit="10"/>
<path d="M143.326 1.51716L142.45 18.137C142.424 18.4746 142.271 18.7899 142.023 19.0195C141.774 19.2491 141.447 19.3761 141.109 19.3751H138.339C138.062 18.4192 137.256 15.5916 137.291 14.5435C137.291 13.7258 138.627 11.8657 139.554 10.6909C140.135 9.92197 140.434 8.9764 140.4 8.01308L140.227 3.5385C140.226 3.47466 140.206 3.41265 140.17 3.36001C140.131 3.3077 140.08 3.26605 140.02 3.23903C139.96 3.22175 139.896 3.22175 139.836 3.23903C139.773 3.25149 139.713 3.27917 139.663 3.31966C138.724 4.20651 136.375 6.46971 134.584 8.50256L134.97 1.59203C134.987 1.27127 135.125 0.968882 135.356 0.745505C135.583 0.520452 135.888 0.39243 136.208 0.388464L141.967 0.215672C142.146 0.21354 142.324 0.246833 142.491 0.313597C142.659 0.378923 142.812 0.478993 142.94 0.6073C143.068 0.734 143.17 0.884691 143.239 1.05074C143.293 1.20059 143.322 1.35805 143.326 1.51716Z" fill="black"/>
<path d="M198.276 52.897C197.533 60.9189 193.375 101.668 193.375 101.668C199.812 103.856 206.465 105.348 213.22 106.12C221.583 107.201 230.06 107.054 238.38 105.682C239.803 105.44 241.225 105.146 242.653 104.789" stroke="black" stroke-width="0.668018" stroke-miterlimit="10"/>
<path d="M227.801 32.2407L240.315 38.5236C241.114 38.9257 241.815 39.4973 242.37 40.1985C242.925 40.8998 243.321 41.7137 243.529 42.5835L261.957 119.624H256.198L242.642 88.8611" stroke="black" stroke-width="0.668018" stroke-miterlimit="10"/>
<path d="M211.274 30.8069C200.044 32.3963 175.794 35.4139 175.794 35.4139L138.857 19.6982L135.298 21.7656C135.298 21.7656 164.173 51.1353 170.519 51.9531L200.464 53.0243" stroke="black" stroke-width="0.668018" stroke-miterlimit="10"/>
<path d="M138.471 19.6985C138.471 19.6985 138.431 19.5773 138.367 19.3696" stroke="black" stroke-width="0.668018" stroke-miterlimit="10"/>
<path d="M138.367 19.3699C138.085 18.4139 137.285 15.5864 137.319 14.5325C137.319 13.7205 138.655 11.8605 139.577 10.6799C140.158 9.91285 140.459 8.96978 140.429 8.00785L140.256 3.53327C140.253 3.46889 140.231 3.40693 140.193 3.35478C140.158 3.30129 140.108 3.25921 140.049 3.2338C139.987 3.21634 139.921 3.21634 139.859 3.2338C139.797 3.24523 139.739 3.27308 139.692 3.31443C138.748 4.19552 136.404 6.46452 134.607 8.46281C133.725 9.35683 132.971 10.3684 132.367 11.4689C131.566 13.5824 135.304 21.5007 135.304 21.5007" stroke="black" stroke-width="0.668018" stroke-miterlimit="10"/>
<path d="M228.636 17.1754C233.192 14.4515 232.04 8.68696 231.861 7.67341C231.683 6.65987 229.391 -2.2029 210.588 4.63853C210.588 4.63853 210.588 10.4952 213.468 10.8926C216.347 11.2899 220.828 6.15883 223.027 7.43728C225.227 8.71573 225.492 13.5185 227.139 13.8295C228.786 14.1405 228.636 17.1754 228.636 17.1754Z" fill="black"/>
<path d="M227.801 32.2405C227.349 31.9901 226.983 31.6083 226.753 31.1455C226.523 30.6827 226.438 30.1608 226.511 29.6491L227.709 21.2701C227.709 21.2701 231.596 20.4926 230.45 15.0679" stroke="black" stroke-width="0.668018" stroke-miterlimit="10"/>
<path d="M213.439 10.8926C213.306 14.4688 213.439 19.2659 213.439 19.2659L213.376 21.5117L213.951 23.6079L216.888 27.9097L224.375 25.8078" stroke="black" stroke-width="0.668018" stroke-miterlimit="10"/>
<path d="M211.193 30.8238C212.401 30.7809 213.548 30.2817 214.403 29.4269C215.258 28.572 215.757 27.425 215.8 26.2168" stroke="black" stroke-width="0.668018" stroke-miterlimit="10"/>
<path d="M210.986 30.9678C211.901 32.1195 218.639 39.8651 227.784 32.2175" stroke="black" stroke-width="0.668018" stroke-miterlimit="10"/>
<path d="M215.587 15.379C215.544 16.0125 215.262 16.606 214.798 17.0396C214.334 17.4731 213.723 17.7143 213.088 17.7143C212.453 17.7143 211.841 17.4731 211.377 17.0396C210.913 16.606 210.631 16.0125 210.588 15.379C210.588 13.9969 211.706 13.5361 213.088 13.5361C214.47 13.5361 215.587 13.9969 215.587 15.379Z" fill="white" stroke="black" stroke-width="0.501014" stroke-miterlimit="10"/>
<path d="M222.474 15.379C222.449 15.8562 222.287 16.3161 222.009 16.7045C221.73 17.0929 221.346 17.3935 220.903 17.5709C220.459 17.7482 219.974 17.795 219.504 17.7056C219.035 17.6162 218.601 17.3943 218.253 17.0663C217.79 16.623 217.514 16.0193 217.481 15.379C217.481 13.9969 218.599 13.5361 219.981 13.5361C221.363 13.5361 222.474 13.9969 222.474 15.379Z" stroke="black" stroke-width="0.501014" stroke-miterlimit="10"/>
<path d="M222.261 14.3599L230.018 15.0509L229.748 15.6268L222.486 15.3561" stroke="black" stroke-width="0.334009" stroke-miterlimit="10"/>
<path d="M215.046 14.0833C215.046 14.0833 215.846 13.4729 218.023 14.0833" stroke="black" stroke-width="0.334009" stroke-miterlimit="10"/>
<path d="M213.9 29.9141C214.476 31.826 220.637 36.001 227.03 32.5285C227.03 32.5285 219.399 39.7788 211.274 31.1061L213.9 29.9141Z" fill="black"/>
<path d="M196.796 71.0429L200.424 53.0237L198.276 52.897L196.796 71.0429Z" fill="black"/>
<path d="M213.237 106.12L219.088 166.126" stroke="black" stroke-width="0.668018" stroke-miterlimit="10"/>
<path d="M193.128 101.542C193.865 100.051 194.539 98.5187 195.172 96.9753C195.805 95.432 196.393 93.8656 196.9 92.2819C197.406 90.6982 197.896 89.0858 198.282 87.4618C198.663 85.8319 198.926 84.1768 199.071 82.5093C198.972 84.183 198.754 85.8477 198.42 87.4906C198.08 89.1376 197.654 90.7616 197.176 92.3683C196.698 93.975 196.139 95.5587 195.546 97.1308C194.953 98.703 194.32 100.258 193.617 101.795L193.128 101.542Z" fill="#231F20"/>
<path d="M211.331 31.3883L199.814 33.4039L194.055 34.4059C192.143 34.7284 190.202 35.0797 188.296 35.3676C190.191 35.0336 192.12 34.6362 194.055 34.2619L199.814 33.1102L211.279 30.8066L211.331 31.3883Z" fill="#231F20"/>
<path d="M215.178 136.141L213.848 112.38L215.754 136.1L215.178 136.141Z" fill="white"/>
<path d="M210.295 33.5879C211.362 34.8133 212.645 35.8338 214.078 36.5997C215.526 37.3379 217.135 37.7059 218.76 37.6708C220.398 37.6042 222.009 37.2331 223.511 36.5767C225.023 35.9202 226.461 35.1056 227.801 34.1465C226.484 35.1466 225.065 36.0055 223.569 36.7091C222.062 37.4238 220.435 37.8478 218.772 37.9588C217.086 38.0436 215.407 37.7091 213.882 36.9855C212.368 36.2359 211.002 35.2173 209.851 33.9794L210.295 33.5879Z" fill="#231F20"/>
<path d="M-8.43525 178.744C-51.1193 142.631 -46.1322 20.3776 63.06 35.886C172.252 51.3944 279.682 324.977 461.089 197.535" stroke="black" stroke-width="0.575878" stroke-miterlimit="10"/>
</g>
<defs>
<clipPath id="clip0_35_751">
<rect width="497.829" height="233.749" fill="white" transform="translate(-36.5726 0.158447)"/>
</clipPath>
</defs>
</svg>
