<svg width="380" height="264" viewBox="0 0 380 264" fill="none" xmlns="http://www.w3.org/2000/svg">
<g clip-path="url(#clip0_35_810)">
<path d="M98.9177 171.252L104.43 136.667V129.498C104.43 129.498 94.9607 128.544 93.3425 124.175C91.7242 119.807 98.9978 94.6016 99.9528 92.6929C100.908 90.7842 101.062 89.7673 103.384 88.5914C105.705 87.4155 112.178 83.9673 114.163 82.4562C115.267 81.6034 116.464 80.8755 117.731 80.2861C117.731 80.2861 118.634 78.5819 120.018 78.4513C121.402 78.3206 129.808 78.2752 130.391 78.5024C130.974 78.7296 132.106 80.4623 132.501 80.6043C132.895 80.7463 134.788 82.7175 142.937 84.524C151.085 86.3305 165.238 88.5573 165.238 88.5573L184.005 61.8579L191.027 64.3176L176.034 90.2217C176.034 90.2217 171.299 99.9812 168.6 100.447C165.901 100.913 147.443 102.464 147.443 102.464L148.478 127.845C148.478 127.845 149.232 139.513 149.793 145.137C150.353 150.761 155.202 171.269 155.202 171.269L98.9177 171.252Z" fill="white"/>
<path d="M-3.43848 286.52C-3.25923 265.358 5.3285 245.123 20.4547 230.222C35.5809 215.321 56.0205 206.96 77.3228 206.96C98.6251 206.96 119.065 215.321 134.191 230.222C149.317 245.123 157.905 265.358 158.084 286.52H-3.43848Z" fill="#5C6A69"/>
<path d="M104.567 162.356L104.173 165.599C103.478 171.321 103.192 177.084 103.315 182.846L105.408 280.486H113.459L130.991 181.074L129.121 161.759L104.567 162.356Z" fill="#2A2D2A"/>
<path d="M120.464 162.111L152.772 280.515H161.098L152.806 180.619C152.366 175.304 151.451 170.038 150.073 164.884L149.272 161.884L133.479 161.68" fill="#2A2D2A"/>
<path d="M165.02 88.5914L183.851 61.8579L191.124 64.4029C191.124 64.4029 171.11 98.686 169.824 99.9585C168.537 101.231 148.175 102.344 148.175 102.344C147.085 111.14 146.533 119.994 146.522 128.856C146.515 134.028 147.09 139.184 148.237 144.228C150.233 153.073 150.645 153.812 152.949 161.651L101.114 162.179L103.63 145.734C105.075 140.469 105.7 135.014 105.482 129.561L104.533 105.702" stroke="black" stroke-width="0.67475" stroke-miterlimit="10"/>
<path d="M189.191 57.1549C189.191 57.1549 191.656 59.1091 191.41 59.6715C191.164 60.2339 189.191 63.4889 189.191 63.4889L183.85 61.8585L189.266 52.5592C189.295 52.5106 189.339 52.4727 189.391 52.4512C189.445 52.4342 189.503 52.4342 189.557 52.4512C189.616 52.4675 189.666 52.5038 189.7 52.5535C189.73 52.6014 189.746 52.6564 189.746 52.7126L188.917 57.7684" stroke="black" stroke-width="0.67475" stroke-miterlimit="10"/>
<path d="M115.558 81.1669C116.509 80.578 117.61 80.2724 118.731 80.2864H130.322C131.497 80.2676 132.649 80.6088 133.621 81.2635" stroke="black" stroke-width="0.67475" stroke-miterlimit="10"/>
<path d="M117.336 80.5191L118.383 79.0592C118.555 78.8552 118.775 78.6954 119.023 78.5933C119.27 78.4868 119.538 78.4382 119.806 78.4513H129.693C129.957 78.4397 130.221 78.4863 130.465 78.5876C130.709 78.689 130.928 78.8422 131.106 79.0364L132.289 80.61" stroke="black" stroke-width="0.67475" stroke-miterlimit="10"/>
<path d="M133.622 81.2637C136.847 83.7802 153.807 87.3136 165.02 88.5918" stroke="black" stroke-width="0.67475" stroke-miterlimit="10"/>
<path d="M105.631 129.907C105.631 129.907 97.0535 129.055 93.6683 125.311C90.2831 121.568 98.3516 95.5387 100.073 91.8633C100.429 91.0612 100.929 90.3298 101.548 89.7047C103.652 87.7221 109.102 86.5519 115.558 81.1836" stroke="black" stroke-width="0.67475" stroke-miterlimit="10"/>
<path d="M128.738 171.252L121.962 232.916L131.209 181.171L128.738 171.252Z" fill="black"/>
<path d="M100.284 128.862C102.274 126.59 105.019 105.861 104.539 105.73L105.631 129.908C105.631 129.908 100.221 129.584 100.284 128.862Z" fill="black"/>
<path d="M142.714 102.686C142.942 102.686 150.959 102.169 150.959 102.169" stroke="black" stroke-width="0.67475" stroke-miterlimit="10"/>
<path d="M129.951 78.1903L131.397 74.0661C132.511 74.3417 133.645 74.5316 134.788 74.6342C135.829 74.6342 137.91 67.2492 137.95 66.4993C137.99 65.7495 139.185 66.0563 139.746 65.4996C140.083 65.1588 138.602 63.2841 137.927 62.4093C137.216 61.4466 136.866 60.2669 136.938 59.0747C137.013 58.5778 136.972 58.0706 136.818 57.592C136.361 56.1775 135.331 54.6665 134.977 51.8545" stroke="black" stroke-width="0.67475" stroke-miterlimit="10"/>
<path d="M120.418 78.503L120.184 76.8613" stroke="black" stroke-width="0.67475" stroke-miterlimit="10"/>
<path d="M148.174 102.345L146.293 127.283L142.714 102.686L148.174 102.345Z" fill="black"/>
<path d="M184.491 61.1367L191.118 64.3974L183.85 61.8525L184.491 61.1367Z" fill="black"/>
<path d="M120.184 76.8613L130.334 78.6167L131.609 80.372C131.609 80.372 130.928 78.4178 129.716 78.4462C128.504 78.4746 120.315 78.3042 120.315 78.3042L120.184 76.8613Z" fill="black"/>
<path d="M350.268 0.705078H157.587V113.104H350.268V0.705078Z" stroke="#2A2D2A" stroke-width="0.892042" stroke-miterlimit="10"/>
<path d="M172.969 17.9293L192.811 39.9592C194.069 41.3583 195.777 42.2794 197.644 42.5644C199.51 42.8494 201.418 42.4806 203.041 41.5214L224.77 28.6943C226.317 27.78 228.126 27.4011 229.913 27.6169C231.7 27.8328 233.364 28.6312 234.645 29.8873L266.382 60.9438C267.166 61.7108 268.099 62.3118 269.124 62.7107C270.149 63.1096 271.245 63.2979 272.346 63.2645C273.446 63.231 274.528 62.9765 275.526 62.5161C276.525 62.0557 277.419 61.3991 278.155 60.5859L308.982 26.5016C309.775 25.626 310.751 24.9337 311.841 24.4735L341.725 11.7771" stroke="#2A2D2A" stroke-width="0.892042" stroke-miterlimit="10"/>
<path d="M214.111 81.2637H326.858" stroke="#2A2D2A" stroke-width="0.892042" stroke-miterlimit="10"/>
<path d="M210.166 96.5615H333.731" stroke="#2A2D2A" stroke-width="0.892042" stroke-miterlimit="10"/>
<path d="M350.777 113.263H157.301V115.024H350.777V113.263Z" fill="#2A2D2A"/>
<path d="M125.873 62.6989C125.948 61.3242 128.035 59.4382 129.304 58.9212C133.244 57.3249 135.812 54.4789 135.24 51.0534C134.554 46.9747 123.18 43.3276 116.49 47.2644C103.675 54.8084 104.379 78.1845 114.563 78.9969L119.709 78.8833C125.33 79.5763 124.427 71.8165 124.621 68.0899L125.873 62.6989Z" fill="black"/>
<path d="M134.617 53.4453C134.885 54.8769 131.563 60.7678 129.224 62.5345" stroke="black" stroke-width="0.571822" stroke-miterlimit="10"/>
<path d="M118.972 78.6677L119.824 70.1978" stroke="black" stroke-width="0.67475" stroke-miterlimit="10"/>
<path d="M126.668 72.4473C126.897 72.4473 132.604 74.3617 132.604 74.3617" stroke="black" stroke-width="0.67475" stroke-miterlimit="10"/>
<path d="M9.22754 278.663C161.052 261.184 219.035 147.711 379.168 196.725" stroke="#2A2D2A" stroke-width="0.571822" stroke-miterlimit="10"/>
</g>
<defs>
<clipPath id="clip0_35_810">
<rect width="393.253" height="286.326" fill="white" transform="translate(-14 0.261963)"/>
</clipPath>
</defs>
</svg>
